PathFileType	4	(X/Y/Z)	Patient4_TMGait_0pt5_01_left_02.trc.trc
DataRate	CameraRate	NumFrames	NumMarkers	Units	OrigDataRate	OrigDataStartFrame	OrigNumFrames
76.086956521739	76.086956521739	4	33	mm	76.086956521739	53	       141
Frame#	Time	L.ASIS			Sacral			L.Shoulder			Chest			R.Shoulder			Neck			R.ASIS			R.Thigh.Superior			R.Thigh.Lateral			R.Thigh.Inferior			R.Patella			L.Thigh.Superior			L.Thigh.Lateral			L.Thigh.Inferior			L.Patella			L.Shank.Superior			L.Shank.Lateral			L.Shank.Inferior			R.Shank.Superior			R.Shank.Lateral			R.Shank.Inferior			R.Heel			R.Midfoot.Superior			R.Midfoot.Lateral			R.Toe			L.Heel			L.Midfoot.Lateral			L.Midfoot.Superior			L.Toe			L.Elbow			L.Wrist			R.Elbow			R.Wrist			
		X1	Y1	Z1	X2	Y2	Z2	X3	Y3	Z3	X4	Y4	Z4	X5	Y5	Z5	X6	Y6	Z6	X7	Y7	Z7	X8	Y8	Z8	X9	Y9	Z9	X10	Y10	Z10	X11	Y11	Z11	X12	Y12	Z12	X13	Y13	Z13	X14	Y14	Z14	X15	Y15	Z15	X16	Y16	Z16	X17	Y17	Z17	X18	Y18	Z18	X19	Y19	Z19	X20	Y20	Z20	X21	Y21	Z21	X22	Y22	Z22	X23	Y23	Z23	X24	Y24	Z24	X25	Y25	Z25	X26	Y26	Z26	X27	Y27	Z27	X28	Y28	Z28	X29	Y29	Z29	X30	Y30	Z30	X31	Y31	Z31	X32	Y32	Z32	X33	Y33	Z33	

53	3.203428571429	781.836168521172	962.410832576700	291.908695588966	564.974442044522	1008.023271245654	449.955358454588	739.473610637574	1437.542153453322	269.562108893687	840.929539235347	1366.805275859884	431.248273432926	755.667007946264	1440.115426706068	605.591497871523	738.824402005892	1498.039691054716	420.478707494645	791.894582373088	942.475259373295	566.081789764913	862.023016807348	758.559901982556	538.270588471274	807.713843959296	641.867036458776	607.941205901197	894.493891608451	594.199500206373	529.734343229481	900.973065335418	479.151664224424	551.394208139891	833.276252204261	752.863327329370	325.303254005340	746.640942898406	635.553887237506	271.656724012332	829.187294514267	559.394128293052	338.807159369465	829.533388448841	488.493206246177	351.686026239229	801.903751606102	416.643209661506	344.484999737273	714.313489211395	302.420079764674	292.552505022947	758.704575377670	192.605935573870	368.792415614361	818.393228609627	411.847510466874	558.179732386886	693.898159231502	383.302652141562	617.514161893998	670.253042695437	276.037904736455	569.434392977536	465.148089827960	235.607670959727	538.567668218255	624.923087964884	159.583972407672	583.809846121872	516.079396176910	173.095465957767	615.508658586928	677.044949453467	42.489204451091	618.152163361152	625.151105325408	38.127160888909	407.574937476531	702.091725614756	35.263186732561	329.412773756795	784.767820361914	95.583445855679	358.966609106277	913.871055954849	42.511846812226	335.492834314253	724.344472194968	1091.084229267073	128.466607842042	890.798293238851	888.671346914709	141.344171289375	711.368199781402	1092.710225413277	717.088873585386	786.900010511010	842.921518366153	705.547637671947	
54	3.216571428571	781.504461401899	962.812438056304	291.543240073590	563.755057921866	1008.705926935217	448.288209828655	741.169075140970	1438.248188479975	269.135788798214	840.859499417467	1367.053130544615	431.685405475917	754.253357006291	1440.276254461067	605.384261441274	739.487286647982	1498.565165312342	420.079996956009	790.060609353972	943.674852782171	565.939999669929	863.360687286547	762.574078454561	537.669594982825	812.099733719485	645.106946126720	607.682898646625	899.609527751102	599.111672528591	529.242843634874	908.862302257566	484.129224264244	551.022331635021	830.791024138175	752.107174628371	325.105226979775	743.049102530629	635.621293905646	271.298394444800	824.470332254586	558.701385932113	338.779706127373	824.026375766242	487.959631358394	351.815679866896	796.329278589608	416.427629082875	344.453252058869	708.495943480603	302.436913115999	292.421037123249	752.413119983080	192.529553364313	368.799003529190	827.345052601626	415.371453943787	558.069016319500	703.304357847004	384.800209712168	617.376394844348	681.525529189472	277.011141303964	569.562214526101	477.170013851323	232.609406391475	538.703617903239	638.288673206704	159.799078377940	584.029993034432	529.306777731270	171.257255658988	615.716809949834	692.591012000661	43.829947655895	618.608689604784	618.451291828929	38.153757053401	407.522051943409	695.439283279276	35.269779418762	329.379488703611	778.133299959814	95.581307078894	358.948370134834	907.215070293208	42.453488832098	335.470341203199	730.038066674072	1092.470133560124	126.308542219404	903.110044229002	895.991530454692	140.369406653144	700.648203355575	1094.412164465024	716.600688933666	763.111288217424	840.733352600487	709.910274894070	
55	3.229714285714	781.192068118573	963.187828786742	291.407123879842	562.598555919016	1009.368116352772	446.752713263969	742.944894687604	1438.911460982739	268.815462898261	840.774248895663	1367.286882390012	432.279092988553	752.753562896114	1440.482652923257	605.254938729880	740.094496858515	1499.081227835062	419.773100162363	788.216828122012	944.867878327491	565.987329776285	864.379759453439	766.504753140633	537.331227224746	815.980758657708	648.347159132494	607.645966577522	904.099737217819	603.921313551595	528.995398210335	916.058837928554	489.235179254857	550.930471929189	828.215410514967	751.318143551396	325.145275085339	739.398625554924	635.690403382318	271.024708951952	819.625739908973	558.013715743209	338.868432872718	818.364066169335	487.436485391762	352.018388816076	790.649941292913	416.225766504190	344.471562788392	702.609845520080	302.446179210424	292.328429544265	746.086573821498	192.457369112541	368.826466607869	836.037348704983	418.771164493417	558.236837288397	712.771872179938	385.333959435789	617.620608009426	693.533077111045	276.938466157289	570.027115235220	490.219469925323	227.171432756468	539.392053781169	653.223715908229	158.761530118991	584.555511361076	544.091775443247	167.338302192543	616.373542581297	710.594942483313	44.511249590288	619.202184243664	611.747871578279	38.172443630099	407.485146991213	688.786551552041	35.272511770611	329.356828400258	771.499954171191	95.573801304042	358.942026282505	900.561109494039	42.383427968163	335.460983706777	735.556584781105	1093.866535752311	124.420609234776	915.199831569798	903.718930958309	139.676544297477	689.937399179782	1096.399190645230	716.059052200874	739.621217771234	839.737825892485	713.780788842381	
56	3.242857142857	780.903352448976	963.512986023285	291.485067808018	561.504411808058	1009.983353496633	445.344618998720	744.772213697417	1439.505779823907	268.603746811338	840.669686688353	1367.484368160390	433.020894060140	751.163550777749	1440.705289375950	605.199397079341	740.634905572296	1499.561754688761	419.561330937614	786.373603074320	946.011620665818	566.196363751520	865.083802658136	770.259579280937	537.219048986748	819.329056736102	651.487637479619	607.821150919159	907.924459411682	608.494817296770	528.975644451715	922.480768857462	494.349979180145	551.120022613160	825.595574509689	750.499212613214	325.411935855849	735.744010787852	635.750783911717	270.823855767584	814.716630388256	557.327993636325	339.058755089664	812.612940981918	486.915849149216	352.282213463298	784.923117727067	416.020292388552	344.533720291085	696.700454164235	302.440839084921	292.268035636064	739.749653722285	192.379008615764	368.874892929823	844.397810099948	421.971145513127	558.686644584399	722.277558518135	384.880156643066	618.254105561817	706.242017679996	275.850196462880	570.840031093116	504.379407732977	219.466888316699	540.626387398612	669.664421942727	156.550819522195	585.419467457525	560.421705942382	161.509776079268	617.497869659581	730.866953011474	44.532404597957	620.002250517124	605.049792776415	38.181566831717	407.463629699688	682.138212548207	35.272348310935	329.344265776758	764.872041342310	95.560950319168	358.949277728959	893.914461684734	42.303940611974	335.464450821239	740.899965629843	1095.230913750960	122.802157770331	927.025700070554	911.808326557913	139.258998141144	679.276087616175	1098.623250489080	715.465209351103	716.649988987195	839.838222704460	717.117344061073	
